# xmcd CD database file
#
# Track frame offsets:
#	150
#	19544
#	51903
#	85305
#	114771
#	146065
#	165932
#	200832
#	230058
#	243884
#	259255
#	274854
#	291895
#	305079
#
# Disc length: 4287 seconds
#
# Revision: 0
# Processed by: cddbd v1.5.2PL0 Copyright (c) Steve Scherf et al.
# Submitted via: CDex 1.51
#
DISCID=c810bd0e
DTITLE=Art Pepper Quintet - Smack Up
DYEAR=1960
DGENRE=Jazz
TTITLE0=Smack Up
TTITLE1=Las Cuevas De Mario
TTITLE2=A Bit Of Basie
TTITLE3=Solid CItizens
TTITLE4=How Can You Lose?
TTITLE5=Maybe Next Year
TTITLE6=Tears Inside
TTITLE7=Solid Citizens [Alt Tk}
TTITLE8=Raisin' Caen
TTITLE9=Anyhow
TTITLE10=Julie Is Her Name
TTITLE11=Aplomb
TTITLE12=Sunset Eyes
TTITLE13=J.S.
EXTD=YEAR: 1960
EXTT0=
EXTT1=
EXTT2=
EXTT3=
EXTT4=
EXTT5=
EXTT6=
EXTT7=
EXTT8=
EXTT9=
EXTT10=
EXTT11=
EXTT12=
EXTT13=
PLAYORDER=
